<mxfile host="app.diagrams.net" modified="2021-08-31T09:43:42.977Z" agent="5.0 (Macintosh)" etag="0M7KRzXFmLuCiXbUqWPA" version="15.0.3" type="github">
  <diagram id="uEdvBf2kqpspZAhSslnI" name="Page-1">
    <mxGraphModel dx="1186" dy="651" grid="1" gridSize="10" guides="1" tooltips="1" connect="1" arrows="1" fold="1" page="1" pageScale="1" pageWidth="827" pageHeight="1169" math="0" shadow="0">
      <root>
        <mxCell id="0" />
        <mxCell id="1" parent="0" />
        <mxCell id="KlavnvulWfk_JPWq43i2-1" value="" style="shape=table;startSize=0;container=1;collapsible=0;childLayout=tableLayout;" vertex="1" parent="1">
          <mxGeometry x="130" y="250" width="408" height="406" as="geometry" />
        </mxCell>
        <mxCell id="KlavnvulWfk_JPWq43i2-2" value="" style="shape=partialRectangle;collapsible=0;dropTarget=0;pointerEvents=0;fillColor=none;top=0;left=0;bottom=0;right=0;points=[[0,0.5],[1,0.5]];portConstraint=eastwest;" vertex="1" parent="KlavnvulWfk_JPWq43i2-1">
          <mxGeometry width="408" height="65" as="geometry" />
        </mxCell>
        <mxCell id="KlavnvulWfk_JPWq43i2-3" value="Item name" style="shape=partialRectangle;html=1;whiteSpace=wrap;connectable=0;overflow=hidden;fillColor=none;top=0;left=0;bottom=0;right=0;" vertex="1" parent="KlavnvulWfk_JPWq43i2-2">
          <mxGeometry width="86" height="65" as="geometry" />
        </mxCell>
        <mxCell id="KlavnvulWfk_JPWq43i2-4" value="Reference" style="shape=partialRectangle;html=1;whiteSpace=wrap;connectable=0;overflow=hidden;fillColor=none;top=0;left=0;bottom=0;right=0;" vertex="1" parent="KlavnvulWfk_JPWq43i2-2">
          <mxGeometry x="86" width="86" height="65" as="geometry" />
        </mxCell>
        <mxCell id="KlavnvulWfk_JPWq43i2-5" value="Quantity" style="shape=partialRectangle;html=1;whiteSpace=wrap;connectable=0;overflow=hidden;fillColor=none;top=0;left=0;bottom=0;right=0;" vertex="1" parent="KlavnvulWfk_JPWq43i2-2">
          <mxGeometry x="172" width="75" height="65" as="geometry" />
        </mxCell>
        <mxCell id="KlavnvulWfk_JPWq43i2-6" value="Image" style="shape=partialRectangle;html=1;whiteSpace=wrap;connectable=0;overflow=hidden;fillColor=none;top=0;left=0;bottom=0;right=0;" vertex="1" parent="KlavnvulWfk_JPWq43i2-2">
          <mxGeometry x="247" width="161" height="65" as="geometry" />
        </mxCell>
        <mxCell id="KlavnvulWfk_JPWq43i2-7" style="shape=partialRectangle;collapsible=0;dropTarget=0;pointerEvents=0;fillColor=none;top=0;left=0;bottom=0;right=0;points=[[0,0.5],[1,0.5]];portConstraint=eastwest;" vertex="1" parent="KlavnvulWfk_JPWq43i2-1">
          <mxGeometry y="65" width="408" height="65" as="geometry" />
        </mxCell>
        <mxCell id="KlavnvulWfk_JPWq43i2-8" value="Item 1" style="shape=partialRectangle;html=1;whiteSpace=wrap;connectable=0;overflow=hidden;fillColor=none;top=0;left=0;bottom=0;right=0;" vertex="1" parent="KlavnvulWfk_JPWq43i2-7">
          <mxGeometry width="86" height="65" as="geometry" />
        </mxCell>
        <mxCell id="KlavnvulWfk_JPWq43i2-9" style="shape=partialRectangle;html=1;whiteSpace=wrap;connectable=0;overflow=hidden;fillColor=none;top=0;left=0;bottom=0;right=0;" vertex="1" parent="KlavnvulWfk_JPWq43i2-7">
          <mxGeometry x="86" width="86" height="65" as="geometry" />
        </mxCell>
        <mxCell id="KlavnvulWfk_JPWq43i2-10" style="shape=partialRectangle;html=1;whiteSpace=wrap;connectable=0;overflow=hidden;fillColor=none;top=0;left=0;bottom=0;right=0;" vertex="1" parent="KlavnvulWfk_JPWq43i2-7">
          <mxGeometry x="172" width="75" height="65" as="geometry" />
        </mxCell>
        <mxCell id="KlavnvulWfk_JPWq43i2-11" style="shape=partialRectangle;html=1;whiteSpace=wrap;connectable=0;overflow=hidden;fillColor=none;top=0;left=0;bottom=0;right=0;" vertex="1" parent="KlavnvulWfk_JPWq43i2-7">
          <mxGeometry x="247" width="161" height="65" as="geometry" />
        </mxCell>
        <mxCell id="KlavnvulWfk_JPWq43i2-12" style="shape=partialRectangle;collapsible=0;dropTarget=0;pointerEvents=0;fillColor=none;top=0;left=0;bottom=0;right=0;points=[[0,0.5],[1,0.5]];portConstraint=eastwest;" vertex="1" parent="KlavnvulWfk_JPWq43i2-1">
          <mxGeometry y="130" width="408" height="70" as="geometry" />
        </mxCell>
        <mxCell id="KlavnvulWfk_JPWq43i2-13" value="Item 2" style="shape=partialRectangle;html=1;whiteSpace=wrap;connectable=0;overflow=hidden;fillColor=none;top=0;left=0;bottom=0;right=0;" vertex="1" parent="KlavnvulWfk_JPWq43i2-12">
          <mxGeometry width="86" height="70" as="geometry" />
        </mxCell>
        <mxCell id="KlavnvulWfk_JPWq43i2-14" style="shape=partialRectangle;html=1;whiteSpace=wrap;connectable=0;overflow=hidden;fillColor=none;top=0;left=0;bottom=0;right=0;" vertex="1" parent="KlavnvulWfk_JPWq43i2-12">
          <mxGeometry x="86" width="86" height="70" as="geometry" />
        </mxCell>
        <mxCell id="KlavnvulWfk_JPWq43i2-15" style="shape=partialRectangle;html=1;whiteSpace=wrap;connectable=0;overflow=hidden;fillColor=none;top=0;left=0;bottom=0;right=0;" vertex="1" parent="KlavnvulWfk_JPWq43i2-12">
          <mxGeometry x="172" width="75" height="70" as="geometry" />
        </mxCell>
        <mxCell id="KlavnvulWfk_JPWq43i2-16" style="shape=partialRectangle;html=1;whiteSpace=wrap;connectable=0;overflow=hidden;fillColor=none;top=0;left=0;bottom=0;right=0;" vertex="1" parent="KlavnvulWfk_JPWq43i2-12">
          <mxGeometry x="247" width="161" height="70" as="geometry" />
        </mxCell>
        <mxCell id="KlavnvulWfk_JPWq43i2-17" value="" style="shape=partialRectangle;collapsible=0;dropTarget=0;pointerEvents=0;fillColor=none;top=0;left=0;bottom=0;right=0;points=[[0,0.5],[1,0.5]];portConstraint=eastwest;" vertex="1" parent="KlavnvulWfk_JPWq43i2-1">
          <mxGeometry y="200" width="408" height="70" as="geometry" />
        </mxCell>
        <mxCell id="KlavnvulWfk_JPWq43i2-18" value="Item 3" style="shape=partialRectangle;html=1;whiteSpace=wrap;connectable=0;overflow=hidden;fillColor=none;top=0;left=0;bottom=0;right=0;" vertex="1" parent="KlavnvulWfk_JPWq43i2-17">
          <mxGeometry width="86" height="70" as="geometry" />
        </mxCell>
        <mxCell id="KlavnvulWfk_JPWq43i2-19" value="" style="shape=partialRectangle;html=1;whiteSpace=wrap;connectable=0;overflow=hidden;fillColor=none;top=0;left=0;bottom=0;right=0;" vertex="1" parent="KlavnvulWfk_JPWq43i2-17">
          <mxGeometry x="86" width="86" height="70" as="geometry" />
        </mxCell>
        <mxCell id="KlavnvulWfk_JPWq43i2-20" value="" style="shape=partialRectangle;html=1;whiteSpace=wrap;connectable=0;overflow=hidden;fillColor=none;top=0;left=0;bottom=0;right=0;" vertex="1" parent="KlavnvulWfk_JPWq43i2-17">
          <mxGeometry x="172" width="75" height="70" as="geometry" />
        </mxCell>
        <mxCell id="KlavnvulWfk_JPWq43i2-21" value="" style="shape=partialRectangle;html=1;whiteSpace=wrap;connectable=0;overflow=hidden;fillColor=none;top=0;left=0;bottom=0;right=0;" vertex="1" parent="KlavnvulWfk_JPWq43i2-17">
          <mxGeometry x="247" width="161" height="70" as="geometry" />
        </mxCell>
        <mxCell id="KlavnvulWfk_JPWq43i2-22" value="" style="shape=partialRectangle;collapsible=0;dropTarget=0;pointerEvents=0;fillColor=none;top=0;left=0;bottom=0;right=0;points=[[0,0.5],[1,0.5]];portConstraint=eastwest;" vertex="1" parent="KlavnvulWfk_JPWq43i2-1">
          <mxGeometry y="270" width="408" height="70" as="geometry" />
        </mxCell>
        <mxCell id="KlavnvulWfk_JPWq43i2-23" value="Item 4" style="shape=partialRectangle;html=1;whiteSpace=wrap;connectable=0;overflow=hidden;fillColor=none;top=0;left=0;bottom=0;right=0;" vertex="1" parent="KlavnvulWfk_JPWq43i2-22">
          <mxGeometry width="86" height="70" as="geometry" />
        </mxCell>
        <mxCell id="KlavnvulWfk_JPWq43i2-24" value="" style="shape=partialRectangle;html=1;whiteSpace=wrap;connectable=0;overflow=hidden;fillColor=none;top=0;left=0;bottom=0;right=0;" vertex="1" parent="KlavnvulWfk_JPWq43i2-22">
          <mxGeometry x="86" width="86" height="70" as="geometry" />
        </mxCell>
        <mxCell id="KlavnvulWfk_JPWq43i2-25" value="" style="shape=partialRectangle;html=1;whiteSpace=wrap;connectable=0;overflow=hidden;fillColor=none;top=0;left=0;bottom=0;right=0;" vertex="1" parent="KlavnvulWfk_JPWq43i2-22">
          <mxGeometry x="172" width="75" height="70" as="geometry" />
        </mxCell>
        <mxCell id="KlavnvulWfk_JPWq43i2-26" value="" style="shape=partialRectangle;html=1;whiteSpace=wrap;connectable=0;overflow=hidden;fillColor=none;top=0;left=0;bottom=0;right=0;" vertex="1" parent="KlavnvulWfk_JPWq43i2-22">
          <mxGeometry x="247" width="161" height="70" as="geometry" />
        </mxCell>
        <mxCell id="KlavnvulWfk_JPWq43i2-27" value="" style="shape=partialRectangle;collapsible=0;dropTarget=0;pointerEvents=0;fillColor=none;top=0;left=0;bottom=0;right=0;points=[[0,0.5],[1,0.5]];portConstraint=eastwest;" vertex="1" parent="KlavnvulWfk_JPWq43i2-1">
          <mxGeometry y="340" width="408" height="66" as="geometry" />
        </mxCell>
        <mxCell id="KlavnvulWfk_JPWq43i2-28" value="Item 5" style="shape=partialRectangle;html=1;whiteSpace=wrap;connectable=0;overflow=hidden;fillColor=none;top=0;left=0;bottom=0;right=0;" vertex="1" parent="KlavnvulWfk_JPWq43i2-27">
          <mxGeometry width="86" height="66" as="geometry" />
        </mxCell>
        <mxCell id="KlavnvulWfk_JPWq43i2-29" value="" style="shape=partialRectangle;html=1;whiteSpace=wrap;connectable=0;overflow=hidden;fillColor=none;top=0;left=0;bottom=0;right=0;" vertex="1" parent="KlavnvulWfk_JPWq43i2-27">
          <mxGeometry x="86" width="86" height="66" as="geometry" />
        </mxCell>
        <mxCell id="KlavnvulWfk_JPWq43i2-30" value="" style="shape=partialRectangle;html=1;whiteSpace=wrap;connectable=0;overflow=hidden;fillColor=none;top=0;left=0;bottom=0;right=0;" vertex="1" parent="KlavnvulWfk_JPWq43i2-27">
          <mxGeometry x="172" width="75" height="66" as="geometry" />
        </mxCell>
        <mxCell id="KlavnvulWfk_JPWq43i2-31" value="" style="shape=partialRectangle;html=1;whiteSpace=wrap;connectable=0;overflow=hidden;fillColor=none;top=0;left=0;bottom=0;right=0;" vertex="1" parent="KlavnvulWfk_JPWq43i2-27">
          <mxGeometry x="247" width="161" height="66" as="geometry" />
        </mxCell>
      </root>
    </mxGraphModel>
  </diagram>
</mxfile>
